<?xml version="1.0" encoding="utf-8"?>
<!-- Generator: Adobe Adobe Illustrator 28.1.0, SVG Export Plug-In . SVG Version: 6.00 Build 0)  -->
<svg version="1.1" id="Layer_1" xmlns="http://www.w3.org/2000/svg" xmlns:xlink="http://www.w3.org/1999/xlink" x="0px" y="0px"
	 width="800px" height="800px" viewBox="0 0 800 800" style="enable-background:new 0 0 800 800;" xml:space="preserve">
<style type="text/css">
	.st0{fill:#47821C;}
	.st1{fill:#4E901E;}
	.st2{fill:#5EAC24;}
	.st3{fill:#6DC82A;}
	.st4{fill:#91DC5A;}
</style>
<path class="st0" d="M2.2,606.4c4.4-9.3,14.6-14.5,24.7-12.5C79.2,604,134.8,629.9,192.1,671c45,32.2,91.3,73.8,137.7,123.6
	c0.4,0.4,0.7,0.8,1.1,1.2H174.1C158.7,778.6,144,763,130.5,749C61.9,677.9,8.7,633.9,8.2,633.4C0.2,626.9-2.2,615.7,2.2,606.4z"/>
<path class="st1" d="M38.3,438.7c6.3-8.2,17.3-11.2,26.8-7.1c49,20.8,98,57.7,145.6,109.8c37.3,40.8,73.9,91.2,108.9,149.5
	c22.8,38.1,41.8,74.4,56.7,104.9H237.9c-34.6-75-72.9-141.5-103.7-190.9c-52.3-83.7-95.1-137.9-95.6-138.4
	C32.2,458.3,32.1,446.9,38.3,438.7z"/>
<path class="st2" d="M125.9,310.9c7.6-7,19-7.8,27.6-2.1c44.4,29.4,85.9,74.6,123.2,134.4c29.3,46.9,56.2,103.1,80,166.8
	c30.4,81.4,47.7,153.5,54.7,185.7h-133c-20.7-117.6-58.6-228.5-88.4-304c-36.2-91.8-68.5-152.9-68.8-153.5
	C116.3,329.1,118.3,317.9,125.9,310.9z"/>
<path class="st3" d="M319.8,795.6c0-0.8,0-1.6,0.1-2.4c7.7-133.4-9.2-267.4-24.9-356.4c-17.1-97.1-36.3-163.3-36.4-164
	c-2.9-9.9,1.1-20.5,9.7-25.9c8.6-5.3,19.6-4,26.8,3.3c36.8,37.5,67.7,89.9,91.9,155.9c19,51.7,33.9,112.1,44.5,179.2
	c17.7,112.5,17,204.9,16.9,210.8L319.8,795.6z"/>
<path class="st1" d="M797.8,606.4c-4.4-9.3-14.6-14.5-24.7-12.5C720.8,604,665.2,629.9,607.9,671c-45,32.2-91.3,73.8-137.7,123.6
	c-0.4,0.4-0.7,0.8-1.1,1.2h156.7c15.4-17.1,30.1-32.8,43.6-46.8c68.6-71,121.8-115.1,122.3-115.5
	C799.8,626.9,802.2,615.7,797.8,606.4z"/>
<path class="st2" d="M761.7,438.7c-6.3-8.2-17.3-11.2-26.8-7.1c-49,20.8-98,57.7-145.6,109.8c-37.3,40.8-73.9,91.2-108.9,149.5
	c-22.8,38.1-41.8,74.4-56.7,104.9h138.4c34.6-75,72.9-141.5,103.7-190.9c52.3-83.7,95.1-137.9,95.6-138.4
	C767.8,458.3,767.9,446.9,761.7,438.7z"/>
<path class="st3" d="M674.1,310.9c-7.6-7-19-7.8-27.6-2.1c-44.4,29.4-85.9,74.6-123.2,134.4c-29.3,46.9-56.2,103.1-80,166.8
	c-30.4,81.4-47.7,153.5-54.7,185.7h133c20.7-117.6,58.6-228.5,88.4-304c36.2-91.8,68.5-152.9,68.8-153.5
	C683.7,329.1,681.7,317.9,674.1,310.9z"/>
<path class="st4" d="M482.6,795.8c0-0.8,0-1.6-0.1-2.4c-7.3-133.4,10.8-267.3,27.3-356.3c18-97.1,38.1-163.2,38.3-163.8
	c3-9.9-1-20.5-9.9-25.9c-8.8-5.4-20.2-4.1-27.5,3.2c-38,37.3-70.1,89.6-95.3,155.5c-19.8,51.7-35.4,111.9-46.6,179
	c-18.7,112.4-18.4,204.9-18.4,210.7L482.6,795.8L482.6,795.8L482.6,795.8z"/>
<g>
	<path class="st0" d="M187.8,795.8H76.2c-6.8,0-12.2-5.5-12.2-12.2c0-6.8,5.5-12.2,12.2-12.2h111.6c6.8,0,12.2,5.5,12.2,12.2
		C200,790.3,194.5,795.8,187.8,795.8z"/>
	<path class="st0" d="M34.3,795.8H13.1c-6.8,0-12.2-5.5-12.2-12.2c0-6.8,5.5-12.2,12.2-12.2h21.2c6.8,0,12.2,5.5,12.2,12.2
		C46.5,790.3,41,795.8,34.3,795.8z"/>
</g>
<g>
	<path class="st1" d="M694.4,795.8h-90.3c-6.8,0-12.2-5.5-12.2-12.2c0-6.8,5.5-12.2,12.2-12.2h90.3c6.8,0,12.2,5.5,12.2,12.2
		C706.7,790.3,701.2,795.8,694.4,795.8z"/>
	<path class="st1" d="M785.9,795.8H738c-6.8,0-12.2-5.5-12.2-12.2c0-6.8,5.5-12.2,12.2-12.2h47.9c6.8,0,12.2,5.5,12.2,12.2
		C798.1,790.3,792.6,795.8,785.9,795.8z"/>
</g>
<g>
	<path class="st2" d="M423.7,747.2c-6.6,0-12.1-5.3-12.2-12c-1-41.5,1.1-85.9,6.2-132c0.7-6.7,6.8-11.6,13.5-10.8
		c6.7,0.7,11.6,6.8,10.8,13.5c-5,45-7,88.3-6.1,128.7c0.2,6.8-5.2,12.4-12,12.5C423.9,747.2,423.8,747.2,423.7,747.2z"/>
	<path class="st2" d="M437.1,562.9c-0.6,0-1.3,0-1.9-0.2c-6.7-1.1-11.2-7.3-10.2-14c5.8-36.7,11.3-59.5,11.5-60.4
		c1.6-6.6,8.2-10.6,14.8-9c6.6,1.6,10.6,8.2,9.1,14.8c-0.1,0.2-5.4,22.9-11.1,58.6C448.3,558.6,443.1,562.9,437.1,562.9z"/>
</g>
</svg>
