<?xml version="1.0" encoding="UTF-8"?>
<svg id="Layer_1" xmlns="http://www.w3.org/2000/svg" viewBox="0 0 799.95 552.43">
  <defs>
    <style>
      .cls-1 {
        fill: #8e8149;
      }

      .cls-2 {
        fill: #8e8043;
      }

      .cls-3 {
        fill: #8c803b;
      }

      .cls-4 {
        fill: #c1b863;
      }

      .cls-5 {
        fill: #91783a;
      }

      .cls-6 {
        fill: #dddd8e;
      }

      .cls-7 {
        fill: #c1b353;
      }

      .cls-8 {
        fill: #aa9b52;
      }

      .cls-9 {
        fill: #938150;
      }

      .cls-10 {
        fill: #bcab62;
      }

      .cls-11 {
        fill: #a89e54;
      }
    </style>
  </defs>
  <path class="cls-1" d="M2.18,362.73c4.4-9.3,14.6-14.5,24.7-12.5,52.3,10.1,107.9,36,165.2,77.1,45,32.2,91.3,73.8,137.7,123.6.4.4.7.8,1.1,1.2h-156.8c-15.4-17.2-30.1-32.8-43.6-46.8C61.88,434.23,8.68,390.23,8.18,389.73c-8-6.5-10.4-17.7-6-27Z"/>
  <path class="cls-3" d="M38.28,195.03c6.3-8.2,17.3-11.2,26.8-7.1,49,20.8,98,57.7,145.6,109.8,37.3,40.8,73.9,91.2,108.9,149.5,22.8,38.1,41.8,74.4,56.7,104.9h-138.4c-34.6-75-72.9-141.5-103.7-190.9-52.3-83.7-95.1-137.9-95.6-138.4-6.4-8.2-6.5-19.6-.3-27.8Z"/>
  <path class="cls-10" d="M125.88,67.23c7.6-7,19-7.8,27.6-2.1,44.4,29.4,85.9,74.6,123.2,134.4,29.3,46.9,56.2,103.1,80,166.8,30.4,81.4,47.7,153.5,54.7,185.7h-133c-20.7-117.6-58.6-228.5-88.4-304-36.2-91.8-68.5-152.9-68.8-153.5-4.9-9.1-2.9-20.3,4.7-27.3Z"/>
  <path class="cls-7" d="M319.78,551.93c0-.8,0-1.6.1-2.4,7.7-133.4-9.2-267.4-24.9-356.4-17.1-97.1-36.3-163.3-36.4-164-2.9-9.9,1.1-20.5,9.7-25.9,8.6-5.3,19.6-4,26.8,3.3,36.8,37.5,67.7,89.9,91.9,155.9,19,51.7,33.9,112.1,44.5,179.2,17.7,112.5,17,204.9,16.9,210.8l-128.6-.5Z"/>
  <path class="cls-9" d="M797.78,362.73c-4.4-9.3-14.6-14.5-24.7-12.5-52.3,10.1-107.9,36-165.2,77.1-45,32.2-91.3,73.8-137.7,123.6-.4.4-.7.8-1.1,1.2h156.7c15.4-17.1,30.1-32.8,43.6-46.8,68.6-71,121.8-115.1,122.3-115.5,8.1-6.6,10.5-17.8,6.1-27.1Z"/>
  <path class="cls-11" d="M761.68,195.03c-6.3-8.2-17.3-11.2-26.8-7.1-49,20.8-98,57.7-145.6,109.8-37.3,40.8-73.9,91.2-108.9,149.5-22.8,38.1-41.8,74.4-56.7,104.9h138.4c34.6-75,72.9-141.5,103.7-190.9,52.3-83.7,95.1-137.9,95.6-138.4,6.4-8.2,6.5-19.6.3-27.8Z"/>
  <path class="cls-4" d="M674.08,67.23c-7.6-7-19-7.8-27.6-2.1-44.4,29.4-85.9,74.6-123.2,134.4-29.3,46.9-56.2,103.1-80,166.8-30.4,81.4-47.7,153.5-54.7,185.7h133c20.7-117.6,58.6-228.5,88.4-304,36.2-91.8,68.5-152.9,68.8-153.5,4.9-9.1,2.9-20.3-4.7-27.3Z"/>
  <path class="cls-6" d="M482.58,552.13c0-.8,0-1.6-.1-2.4-7.3-133.4,10.8-267.3,27.3-356.3,18-97.1,38.1-163.2,38.3-163.8,3-9.9-1-20.5-9.9-25.9-8.8-5.4-20.2-4.1-27.5,3.2-38,37.3-70.1,89.6-95.3,155.5-19.8,51.7-35.4,111.9-46.6,179-18.7,112.4-18.4,204.9-18.4,210.7h132.2Z"/>
  <g>
    <path class="cls-5" d="M187.78,552.13h-111.6c-6.8,0-12.2-5.5-12.2-12.2s5.5-12.2,12.2-12.2h111.6c6.8,0,12.2,5.5,12.2,12.2,0,6.7-5.5,12.2-12.2,12.2Z"/>
    <path class="cls-5" d="M34.28,552.13H13.08c-6.8,0-12.2-5.5-12.2-12.2s5.5-12.2,12.2-12.2h21.2c6.8,0,12.2,5.5,12.2,12.2,0,6.7-5.5,12.2-12.2,12.2Z"/>
  </g>
  <g>
    <path class="cls-2" d="M694.38,552.13h-90.3c-6.8,0-12.2-5.5-12.2-12.2s5.5-12.2,12.2-12.2h90.3c6.8,0,12.2,5.5,12.2,12.2.1,6.7-5.4,12.2-12.2,12.2Z"/>
    <path class="cls-2" d="M785.88,552.13h-47.9c-6.8,0-12.2-5.5-12.2-12.2s5.5-12.2,12.2-12.2h47.9c6.8,0,12.2,5.5,12.2,12.2,0,6.7-5.5,12.2-12.2,12.2Z"/>
  </g>
  <g>
    <path class="cls-8" d="M423.68,503.53c-6.6,0-12.1-5.3-12.2-12-1-41.5,1.1-85.9,6.2-132,.7-6.7,6.8-11.6,13.5-10.8,6.7.7,11.6,6.8,10.8,13.5-5,45-7,88.3-6.1,128.7.2,6.8-5.2,12.4-12,12.5,0,.1-.1.1-.2.1Z"/>
    <path class="cls-8" d="M437.08,319.23c-.6,0-1.3,0-1.9-.2-6.7-1.1-11.2-7.3-10.2-14,5.8-36.7,11.3-59.5,11.5-60.4,1.6-6.6,8.2-10.6,14.8-9,6.6,1.6,10.6,8.2,9.1,14.8-.1.2-5.4,22.9-11.1,58.6-1,5.9-6.2,10.2-12.2,10.2Z"/>
  </g>
</svg>